<svg xmlns="http://www.w3.org/2000/svg" viewBox="0 0 448 512">
    <!-- Garis pertama (1/2 panjang) -->
    <path d="M0 96C0 78.3 14.3 64 32 64h192c17.7 0 32 14.3 32 32s-14.3 32-32 32H32C14.3 128 0 113.7 0 96z"/>
    <!-- Garis kedua (penuh) -->
    <path d="M0 256c0-17.7 14.3-32 32-32h384c17.7 0 32 14.3 32 32s-14.3 32-32 32H32c-17.7 0-32-14.3-32-32z"/>
    <!-- Garis ketiga (3/4 panjang) -->
    <path d="M0 416c0-17.7 14.3-32 32-32h288c17.7 0 32 14.3 32 32s-14.3 32-32 32H32c-17.7 0-32-14.3-32-32z"/>
</svg>